<?xml version="1.0" encoding="UTF-8" standalone="no"?>
<!-- Created with Inkscape (http://www.inkscape.org/) -->

<svg
   width="343.14493mm"
   height="61.853481mm"
   viewBox="0 0 343.14494 61.853481"
   version="1.1"
   id="svg1"
   xml:space="preserve"
   inkscape:version="1.3 (0e150ed6c4, 2023-07-21)"
   sodipodi:docname="caesium-logo.svg"
   xmlns:inkscape="http://www.inkscape.org/namespaces/inkscape"
   xmlns:sodipodi="http://sodipodi.sourceforge.net/DTD/sodipodi-0.dtd"
   xmlns:xlink="http://www.w3.org/1999/xlink"
   xmlns="http://www.w3.org/2000/svg"
   xmlns:svg="http://www.w3.org/2000/svg"><sodipodi:namedview
     id="namedview1"
     pagecolor="#505050"
     bordercolor="#eeeeee"
     borderopacity="1"
     inkscape:showpageshadow="0"
     inkscape:pageopacity="0"
     inkscape:pagecheckerboard="0"
     inkscape:deskcolor="#505050"
     inkscape:document-units="mm"
     inkscape:zoom="0.28507295"
     inkscape:cx="720.86811"
     inkscape:cy="7.015748"
     inkscape:window-width="1600"
     inkscape:window-height="829"
     inkscape:window-x="-8"
     inkscape:window-y="-8"
     inkscape:window-maximized="1"
     inkscape:current-layer="layer1" /><defs
     id="defs1"><linearGradient
       id="linearGradient27"
       inkscape:collect="always"><stop
         style="stop-color:#0066ff;stop-opacity:1;"
         offset="0"
         id="stop27" /><stop
         style="stop-color:#003380;stop-opacity:1;"
         offset="1"
         id="stop26" /></linearGradient><linearGradient
       id="linearGradient11"
       inkscape:collect="always"><stop
         style="stop-color:#003380;stop-opacity:1;"
         offset="0"
         id="stop12" /><stop
         style="stop-color:#0066ff;stop-opacity:1;"
         offset="1"
         id="stop11" /></linearGradient><linearGradient
       inkscape:collect="always"
       xlink:href="#linearGradient11"
       id="linearGradient12"
       x1="-293.18188"
       y1="329.67389"
       x2="-147.67758"
       y2="294.90598"
       gradientUnits="userSpaceOnUse"
       gradientTransform="rotate(30,367.82953,935.68077)" /><linearGradient
       inkscape:collect="always"
       xlink:href="#linearGradient11"
       id="linearGradient14"
       x1="-250.53961"
       y1="305.0542"
       x2="-177.78717"
       y2="431.06461"
       gradientUnits="userSpaceOnUse"
       gradientTransform="rotate(30,367.82953,935.68077)" /><linearGradient
       inkscape:collect="always"
       xlink:href="#linearGradient27"
       id="linearGradient16"
       x1="-280.64935"
       y1="455.68405"
       x2="-177.78732"
       y2="347.05759"
       gradientUnits="userSpaceOnUse"
       gradientTransform="rotate(30,367.82953,935.68077)" /><linearGradient
       inkscape:collect="always"
       xlink:href="#linearGradient27"
       id="linearGradient18"
       x1="-353.40137"
       y1="413.68063"
       x2="-207.89706"
       y2="378.91275"
       gradientUnits="userSpaceOnUse"
       gradientTransform="rotate(30,367.82953,935.68077)" /><linearGradient
       inkscape:collect="always"
       xlink:href="#linearGradient27"
       id="linearGradient20"
       x1="-353.40134"
       y1="294.90598"
       x2="-250.53931"
       y2="403.53244"
       gradientUnits="userSpaceOnUse"
       gradientTransform="rotate(30,367.82953,935.68077)" /><linearGradient
       inkscape:collect="always"
       xlink:href="#linearGradient11"
       id="linearGradient22"
       x1="-293.18155"
       y1="378.91302"
       x2="-250.53931"
       y2="235.51865"
       gradientUnits="userSpaceOnUse"
       gradientTransform="rotate(30,367.82953,935.68077)" /></defs><g
     inkscape:label="Layer 1"
     inkscape:groupmode="layer"
     id="layer1"
     transform="translate(-4.6974691,-745.32133)"><path
       style="font-size:61.4278px;line-height:0.9;font-family:'Brand Sans';-inkscape-font-specification:'Brand Sans';letter-spacing:0px;text-orientation:upright;fill:#666666;stroke-width:2.3884"
       d="m 88.233593,778.03231 q 0,-3.95027 1.31676,-7.2768 1.31676,-3.39585 3.67305,-5.82145 2.42561,-2.49491 5.75214,-3.81166 3.326537,-1.38605 7.346117,-1.38605 5.33633,0 9.28659,2.42559 3.95027,2.3563 6.16796,6.86099 l -5.82145,3.11863 q -1.38606,-3.04933 -3.81166,-4.57399 -2.4256,-1.52466 -5.68284,-1.52466 -2.56422,0 -4.6433,0.90094 -2.079077,0.90093 -3.603747,2.4949 -1.45536,1.59397 -2.28699,3.81166 -0.83164,2.14839 -0.83164,4.7819 0,2.5642 0.83164,4.78189 0.83163,2.2177 2.28699,3.81166 1.52467,1.59397 3.603747,2.49491 2.07908,0.90093 4.574,0.90093 3.32654,0 5.75214,-1.59395 2.49491,-1.59397 3.88097,-4.78191 l 5.82144,2.98002 q -2.14839,4.7126 -6.16796,7.2075 -3.95027,2.49491 -9.35589,2.49491 -4.01958,0 -7.346117,-1.31675 -3.32653,-1.38606 -5.75214,-3.81166 -2.35629,-2.4949 -3.67305,-5.82145 -1.31676,-3.39584 -1.31676,-7.3461 z m 62.580507,12.19731 q -1.87117,3.04932 -4.8512,4.57398 -2.98002,1.52467 -6.86099,1.52467 -5.54422,0 -8.80146,-2.84142 -3.25724,-2.91072 -3.25724,-7.69262 0,-5.05911 3.81166,-7.96983 3.88096,-2.98002 11.01916,-3.32654 l 8.94007,-0.34651 v -0.48513 q 0,-3.81165 -2.21769,-5.96005 -2.21769,-2.14839 -6.09866,-2.14839 -6.09865,0 -8.94006,5.61354 l -5.54424,-2.77212 q 2.07909,-4.15817 5.82145,-6.37587 3.74235,-2.28698 8.80146,-2.28698 3.32654,0 6.02936,0.97024 2.77211,0.97023 4.71259,2.77211 1.94048,1.80187 2.98002,4.36608 1.03955,2.4949 1.03955,5.61353 v 21.89973 h -6.58378 z m -10.46474,0.34651 q 2.287,0 4.15818,-0.76233 1.94048,-0.76233 3.32654,-2.07909 1.38606,-1.38606 2.14838,-3.25724 0.83164,-1.87117 0.83164,-4.01956 v -1.10885 l -8.52425,0.41582 q -4.15818,0.13861 -6.37587,1.59397 -2.14839,1.38606 -2.14839,4.01956 0,2.42561 1.73257,3.81166 1.73258,1.38606 4.8512,1.38606 z m 42.62128,5.75214 q -4.01958,0 -7.34611,-1.31675 -3.32654,-1.38606 -5.75214,-3.74235 -2.3563,-2.42561 -3.67305,-5.75215 -1.31676,-3.39584 -1.31676,-7.34611 0,-4.01956 1.31676,-7.4154 1.31675,-3.39585 3.67305,-5.82145 2.4256,-2.4256 5.68283,-3.81166 3.32655,-1.38605 7.2075,-1.38605 3.67306,0 6.72239,1.24745 3.11863,1.17814 5.26702,3.46514 2.21769,2.2177 3.39585,5.33632 1.24745,3.11863 1.24745,6.86099 0,1.45536 -0.20792,3.25724 h -27.58255 q 0.55442,4.7126 3.60375,7.55401 3.11863,2.77212 7.90053,2.77212 6.37587,0 9.77171,-5.40563 l 5.05911,3.88097 q -2.6335,3.74235 -6.44516,5.68283 -3.74236,1.94048 -8.52426,1.94048 z m -0.34652,-30.63188 q -4.15817,0 -6.99959,2.4256 -2.77212,2.35631 -3.74236,6.37587 h 20.72157 q -0.27721,-3.95027 -3.04933,-6.37587 -2.70282,-2.4256 -6.93029,-2.4256 z m 37.2157,30.63188 q -5.40563,0 -9.3559,-2.28699 -3.88096,-2.35631 -6.09865,-6.58378 l 5.40563,-3.18793 q 3.11863,6.16795 9.97961,6.16795 3.32653,0 5.26702,-1.31675 2.00979,-1.31675 2.00979,-3.39584 0,-1.87118 -1.59397,-2.77212 -1.52466,-0.97024 -3.88097,-1.59396 -2.35629,-0.69304 -5.05911,-1.24746 -2.70281,-0.62372 -5.05911,-1.73257 -2.35629,-1.10885 -3.95026,-2.91072 -1.52466,-1.87118 -1.52466,-5.05911 0,-2.3563 0.90093,-4.29679 0.97024,-2.00977 2.70281,-3.39584 1.73258,-1.38605 4.15818,-2.14838 2.4949,-0.83163 5.54422,-0.83163 9.77171,0 13.99919,7.96982 l -5.26701,3.18794 q -2.77212,-5.26702 -8.73218,-5.26702 -3.18792,0 -4.9205,1.31676 -1.73256,1.24745 -1.73256,3.04932 0,1.73258 1.52466,2.63351 1.59397,0.83163 3.95026,1.45536 2.3563,0.55442 5.05911,1.17815 2.70282,0.55443 5.05911,1.73257 2.35631,1.10885 3.88097,3.04933 1.59397,1.94048 1.59397,5.19772 0,2.4949 -0.97025,4.57399 -0.97024,2.00979 -2.84142,3.46514 -1.80187,1.45537 -4.36608,2.2177 -2.5642,0.83163 -5.68283,0.83163 z m 21.48391,-35.62168 h 6.65308 v 34.65145 h -6.65308 z m 3.32654,-6.30657 q -1.94048,0 -3.25724,-1.24745 -1.31675,-1.24745 -1.31675,-3.25724 0,-2.00979 1.31675,-3.25724 1.31676,-1.31676 3.25724,-1.31676 1.94049,0 3.18794,1.31676 1.31676,1.24745 1.31676,3.25724 0,2.00979 -1.31676,3.25724 -1.24745,1.24745 -3.18794,1.24745 z m 43.17578,40.95802 h -6.72239 v -4.78191 q -3.67305,5.75214 -10.74195,5.75214 -2.91072,0 -5.33632,-0.97023 -2.3563,-1.03955 -4.08887,-2.91073 -1.66327,-1.87118 -2.56421,-4.50469 -0.90094,-2.63351 -0.90094,-5.89074 v -21.34529 h 6.72239 v 19.88992 q 0,4.50469 2.00978,6.99959 2.00978,2.4256 5.89074,2.4256 3.95027,0 6.44517,-2.6335 2.56421,-2.70282 2.56421,-7.41542 v -19.26619 h 6.72239 z m 9.84106,-34.65145 h 6.72237 v 4.43537 q 1.66327,-2.6335 4.15818,-4.01956 2.56421,-1.38605 5.68283,-1.38605 3.53446,0 6.16797,1.59396 2.6335,1.59397 4.08887,4.57399 3.95026,-6.16795 11.08845,-6.16795 5.68284,0 8.94008,3.74235 3.32654,3.67305 3.32654,10.04892 v 21.83042 h -6.79168 v -20.30576 q 0,-4.36608 -1.73258,-6.65308 -1.73257,-2.35629 -5.12841,-2.35629 -3.67306,0 -5.89075,2.5642 -2.21768,2.49491 -2.21768,6.65308 v 20.09785 h -6.72239 v -20.30576 q 0,-4.36608 -1.80187,-6.65308 -1.73258,-2.35629 -5.05911,-2.35629 -3.67306,0 -5.89076,2.5642 -2.21769,2.49491 -2.21769,6.65308 v 20.09785 h -6.72237 z"
       id="text1"
       aria-label="caesium" /><g
       inkscape:label="Layer 1"
       id="layer1-6"
       transform="matrix(0.29165286,0,0,0.29165286,3.4651418,741.30151)"><path
         id="path3"
         style="fill:url(#linearGradient12);stroke:none;stroke-width:0.529"
         inkscape:transform-center-y="-4.7239369e-06"
         d="m 199.77129,50.247679 -84.00703,1.45e-4 -17.38395,30.109884 84.00703,-1.44e-4 42.00338,72.752286 17.38395,-30.10988 z" /><path
         id="path4"
         style="fill:url(#linearGradient14);stroke-width:0.529"
         inkscape:transform-center-y="10.50091"
         d="m 224.39098,153.10971 -42.00364,-72.752146 -34.7679,-3e-6 42.00363,72.752149 -42.00363,72.75215 h 34.76789 z"
         inkscape:transform-center-x="18.188032" /><path
         id="path5"
         style="fill:url(#linearGradient16);stroke-width:0.529"
         inkscape:transform-center-y="-10.50091"
         d="m 147.61968,225.86201 42.00339,-72.7523 -17.38395,-30.10989 -42.00339,72.7523 -84.007038,-1.4e-4 17.383951,30.10987 z"
         inkscape:transform-center-x="18.188032" /><path
         id="path6"
         style="fill:url(#linearGradient18);stroke-width:0.529"
         inkscape:transform-center-y="5.0000001e-06"
         d="m 46.228697,195.75227 84.007033,-1.5e-4 17.38396,-30.1099 -84.007033,1.5e-4 L 21.609267,92.890076 4.2253223,122.99995 Z"
         inkscape:transform-center-x="3e-06" /><path
         id="path7"
         style="fill:url(#linearGradient20);stroke-width:0.529"
         inkscape:transform-center-y="-10.50091"
         d="M 21.609004,92.890212 63.612657,165.64237 H 98.380576 L 56.376921,92.890234 98.380567,20.138064 63.612675,20.13808 Z"
         inkscape:transform-center-x="-18.188033" /><path
         id="path8"
         style="fill:url(#linearGradient22);stroke-width:0.529"
         inkscape:transform-center-y="10.500915"
         d="M 98.380437,20.137989 56.377042,92.890304 73.761009,123.00021 115.76439,50.247907 199.77143,50.248046 182.38747,20.138172 Z"
         inkscape:transform-center-x="-18.188031" /></g></g></svg>
