<?xml version="1.0" encoding="UTF-8" standalone="no"?>
<!-- Created with Inkscape (http://www.inkscape.org/) -->

<svg
   width="600"
   height="600"
   viewBox="0 0 600 600.00002"
   version="1.1"
   id="svg1"
   inkscape:version="1.3 (0e150ed6c4, 2023-07-21)"
   sodipodi:docname="icon.svg"
   xmlns:inkscape="http://www.inkscape.org/namespaces/inkscape"
   xmlns:sodipodi="http://sodipodi.sourceforge.net/DTD/sodipodi-0.dtd"
   xmlns:xlink="http://www.w3.org/1999/xlink"
   xmlns="http://www.w3.org/2000/svg"
   xmlns:svg="http://www.w3.org/2000/svg">
  <sodipodi:namedview
     id="namedview1"
     pagecolor="#505050"
     bordercolor="#eeeeee"
     borderopacity="1"
     inkscape:showpageshadow="0"
     inkscape:pageopacity="0"
     inkscape:pagecheckerboard="0"
     inkscape:deskcolor="#505050"
     inkscape:document-units="px"
     inkscape:zoom="0.70710678"
     inkscape:cx="283.54982"
     inkscape:cy="277.18586"
     inkscape:window-width="1600"
     inkscape:window-height="829"
     inkscape:window-x="-8"
     inkscape:window-y="-8"
     inkscape:window-maximized="1"
     inkscape:current-layer="layer1" />
  <defs
     id="defs1">
    <linearGradient
       id="linearGradient1"
       inkscape:collect="always">
      <stop
         style="stop-color:#000000;stop-opacity:1;"
         offset="0"
         id="stop1" />
      <stop
         style="stop-color:#008080;stop-opacity:1;"
         offset="1"
         id="stop2" />
    </linearGradient>
    <linearGradient
       inkscape:collect="always"
       xlink:href="#linearGradient1"
       id="linearGradient2"
       x1="134"
       y1="1283"
       x2="534"
       y2="1683"
       gradientUnits="userSpaceOnUse" />
  </defs>
  <g
     inkscape:label="Layer 1"
     inkscape:groupmode="layer"
     id="layer1"
     transform="translate(-34,-1183)">
    <circle
       style="fill:url(#linearGradient2);stroke-width:4"
       id="path1"
       cx="334"
       cy="1483"
       r="300" />
    <path
       style="font-weight:bold;font-size:411.055px;line-height:0.9;font-family:'Journal Antiqua';-inkscape-font-specification:'Journal Antiqua Bold';letter-spacing:0px;text-orientation:upright;fill:#ffffff;stroke-width:4"
       d="m 377.77733,1586.5857 -9.04321,20.1417 q -22.60802,12.7427 -43.57183,17.6754 -20.55275,4.9327 -48.91554,4.9327 -76.04517,0 -120.43911,-40.2834 -44.39394,-40.2834 -44.39394,-109.3406 0,-66.1799 45.21605,-104.408 45.6271,-38.6392 123.72755,-38.6392 26.71857,0 47.27132,4.1106 20.96381,4.1105 48.91555,15.209 l 2.46633,4.5216 q -4.93266,20.1417 -9.45427,62.8914 h -16.03114 l -2.05528,-35.3507 q -16.85325,-15.6201 -33.29545,-21.7859 -16.4422,-6.5769 -39.87234,-6.5769 -48.91554,0 -77.27833,30.8291 -27.95174,30.4181 -27.95174,83.4442 0,58.3698 32.47334,93.7205 32.8844,34.9397 87.14366,34.9397 39.87233,0 80.15572,-20.9638 z m 161.13362,-98.2421 h -14.79798 l -4.11055,-23.8412 q -0.82211,-6.1658 -11.92059,-11.0985 -11.09848,-4.9326 -23.84119,-4.9326 -16.85325,0 -26.71857,7.399 -9.45427,6.9879 -9.45427,19.3195 0,9.8654 4.93266,15.2091 5.34372,4.9326 17.67537,7.81 l 33.7065,7.399 q 27.95174,6.1658 39.87234,18.4975 12.33165,12.3316 12.33165,34.5286 0,31.6512 -23.84119,51.3819 -23.84119,19.3196 -62.89141,19.3196 -30.41807,0 -63.71353,-11.5096 l 2.87739,-57.9587 h 16.03114 l 2.05528,28.3628 q 18.08642,21.3748 46.03816,21.3748 17.67536,0 27.54068,-8.6321 10.27637,-8.6322 10.27637,-23.0191 0,-10.6874 -5.75477,-16.4422 -5.75477,-6.1658 -20.14169,-9.4543 l -35.35073,-8.6321 q -43.57183,-10.6875 -43.57183,-51.3819 0,-30.8291 21.78592,-46.8603 22.19697,-16.4422 63.71352,-16.4422 28.77385,0 50.55976,9.4543 z"
       id="text1"
       aria-label="Cs" />
  </g>
</svg>
