<?xml version="1.0" encoding="UTF-8" standalone="no"?>
<!-- Created with Inkscape (http://www.inkscape.org/) -->

<svg
   width="621.90692"
   height="114.4119"
   viewBox="0 0 621.90692 114.41191"
   version="1.1"
   id="svg1"
   inkscape:version="1.3 (0e150ed6c4, 2023-07-21)"
   sodipodi:docname="wordmark.svg"
   xmlns:inkscape="http://www.inkscape.org/namespaces/inkscape"
   xmlns:sodipodi="http://sodipodi.sourceforge.net/DTD/sodipodi-0.dtd"
   xmlns:xlink="http://www.w3.org/1999/xlink"
   xmlns="http://www.w3.org/2000/svg"
   xmlns:svg="http://www.w3.org/2000/svg">
  <sodipodi:namedview
     id="namedview1"
     pagecolor="#505050"
     bordercolor="#eeeeee"
     borderopacity="1"
     inkscape:showpageshadow="0"
     inkscape:pageopacity="0"
     inkscape:pagecheckerboard="0"
     inkscape:deskcolor="#505050"
     inkscape:document-units="px"
     inkscape:zoom="0.70710678"
     inkscape:cx="222.73864"
     inkscape:cy="-118.79394"
     inkscape:window-width="1600"
     inkscape:window-height="829"
     inkscape:window-x="-8"
     inkscape:window-y="-8"
     inkscape:window-maximized="1"
     inkscape:current-layer="layer1" />
  <defs
     id="defs1">
    <linearGradient
       id="linearGradient1"
       inkscape:collect="always">
      <stop
         style="stop-color:#000000;stop-opacity:1;"
         offset="0"
         id="stop1" />
      <stop
         style="stop-color:#008080;stop-opacity:1;"
         offset="1"
         id="stop2" />
    </linearGradient>
    <linearGradient
       inkscape:collect="always"
       xlink:href="#linearGradient1"
       id="linearGradient4"
       x1="112.11"
       y1="2161.2822"
       x2="716.6098"
       y2="2256.8628"
       gradientUnits="userSpaceOnUse" />
  </defs>
  <g
     inkscape:label="Layer 1"
     inkscape:groupmode="layer"
     id="layer1"
     transform="translate(-94.702936,-2144.6665)">
    <path
       d="m 197.24635,2242.6208 -3.48142,7.754 q -8.70353,4.9057 -16.77407,6.8046 -7.9123,1.899 -18.83128,1.899 -29.27551,0 -46.36608,-15.5081 -17.090564,-15.5082 -17.090564,-42.0935 0,-25.4776 17.407064,-40.1945 17.5653,-14.8751 47.63204,-14.8751 10.28599,0 18.19829,1.5825 8.07055,1.5824 18.83128,5.8551 l 0.94947,1.7407 q -1.89895,7.754 -3.63965,24.2116 h -6.1716 l -0.79123,-13.6091 q -6.48808,-6.0134 -12.81792,-8.3871 -6.32984,-2.5319 -15.34987,-2.5319 -18.83127,0 -29.75025,11.8684 -10.76072,11.7102 -10.76072,32.124 0,22.4709 12.50143,36.0801 12.65968,13.4509 33.54815,13.4509 15.34987,0 30.85797,-8.0706 z m 71.36896,-38.4538 q 0,3.1649 -0.31649,10.6025 -0.15825,7.2793 -0.15825,9.3365 0,2.6902 0.31649,13.4509 v 3.3232 q 0.15825,5.5386 0.94948,7.4375 0.94948,1.899 3.48141,2.2155 l 4.74738,0.4747 v 5.8551 q -12.34319,-0.4747 -13.92565,-0.4747 -1.89895,0 -14.40038,0.4747 l -0.79123,-1.2659 0.79123,-9.8113 -14.71688,11.3937 q -2.37369,1.899 -7.75405,1.899 -9.02003,0 -13.76741,-4.9057 -4.74738,-5.0638 -4.74738,-14.7168 0,-10.1278 6.01335,-15.3499 6.01335,-5.2221 21.04672,-8.387 l 13.92565,-2.8485 q -0.31649,-9.653 -4.27264,-14.0839 -3.95615,-4.5891 -11.86845,-4.5891 -3.16492,0 -6.01335,0.7912 -2.84843,0.633 -3.16492,1.4242 l -3.48141,7.9123 -4.74738,-1.1077 v -10.9189 l 8.38703,-5.0639 q 8.86178,-5.3804 18.98952,-5.3804 12.0267,0 18.67303,6.0134 6.80458,5.8551 6.80458,16.2993 z m -19.30601,34.0229 v -18.673 l -7.12107,1.8989 q -8.38704,2.2155 -11.55196,5.2221 -3.00667,2.8485 -3.00667,8.7036 0,4.5891 2.05719,7.2793 2.21545,2.6902 6.01335,2.6902 3.63966,0 7.43756,-2.0572 3.95615,-2.0572 6.1716,-5.0639 z m 104.75885,-28.4843 v 8.2288 q -11.86845,3.1649 -25.00287,3.1649 h -20.73022 q 0.47474,9.653 3.7979,15.5081 3.00668,5.0639 8.38704,8.2288 5.38036,3.0067 11.55196,3.0067 8.54528,0 18.51478,-5.5386 l 1.89895,2.3737 -3.48141,7.5958 q -7.75405,3.9561 -12.97617,5.3804 -5.22212,1.4242 -12.0267,1.4242 -17.72355,0 -27.06006,-9.8113 -9.17827,-9.8112 -9.17827,-28.6425 0,-11.3937 3.48141,-18.673 3.63966,-7.2794 11.55196,-12.0267 l 7.43756,-4.4309 q 6.17159,-3.6397 13.7674,-3.6397 13.60916,0 21.83795,7.5958 8.22879,7.5958 8.22879,20.2555 z m -33.3899,3.4814 13.29266,-0.4747 q -0.15825,-11.7102 -3.32317,-16.7741 -3.00667,-5.2221 -9.81125,-5.2221 -6.80458,0 -9.9695,5.2221 -3.16492,5.0639 -3.48141,16.7741 2.84843,0.1582 5.06387,0.1582 6.96283,0.3165 7.59581,0.3165 z m 96.84655,-8.387 h -5.69686 l -1.58246,-9.1783 q -0.31649,-2.3737 -4.58913,-4.2726 -4.27264,-1.899 -9.17827,-1.899 -6.48809,0 -10.28599,2.8485 -3.63966,2.6901 -3.63966,7.4375 0,3.7979 1.89895,5.8551 2.0572,1.899 6.80458,3.0067 l 12.97617,2.8484 q 10.76073,2.3737 15.34987,7.1211 4.74738,4.7474 4.74738,13.2927 0,12.1849 -9.17827,19.7807 -9.17827,7.4376 -24.21164,7.4376 -11.7102,0 -24.52813,-4.4309 l 1.10772,-22.3127 h 6.1716 l 0.79123,10.919 q 6.96282,8.2288 17.72355,8.2288 6.80458,0 10.60248,-3.3232 3.95615,-3.3232 3.95615,-8.8618 0,-4.1144 -2.21544,-6.3298 -2.21545,-2.3737 -7.75406,-3.6397 l -13.60915,-3.3231 q -16.77408,-4.1144 -16.77408,-19.7808 0,-11.8684 8.38704,-18.04 8.54528,-6.3299 24.52813,-6.3299 11.07722,0 19.46426,3.6397 z m 18.35657,46.2078 5.53861,-0.3165 q 3.95615,-0.3165 4.74738,-1.8989 0.94948,-1.7407 0.94948,-8.2288 v -34.6559 q 0,-7.2793 -0.79123,-9.02 -0.63299,-1.7407 -3.32317,-2.0572 l -7.12107,-0.4747 v -5.6969 q 2.21545,-0.3165 2.37369,-0.3165 9.17827,-1.1077 15.50811,-3.0067 l 11.07722,-3.4814 1.58246,0.9495 v 57.7598 q 0,6.4881 0.79123,8.2288 0.94948,1.5824 4.90563,1.8989 l 5.53861,0.3165 v 5.8551 q -15.8246,-0.4747 -21.36321,-0.4747 l -20.41374,0.4747 z m 20.41374,-106.3413 q 4.90562,0 8.22879,3.4814 3.48141,3.4814 3.48141,8.3871 0,4.9056 -3.48141,8.387 -3.48141,3.4814 -8.38704,3.4814 -5.06387,0 -8.54528,-3.4814 -3.32317,-3.4814 -3.32317,-8.5453 0,-4.9056 3.48141,-8.2288 3.48141,-3.4814 8.54529,-3.4814 z m 88.93428,99.062 -12.02669,11.7102 q -3.63966,3.6397 -10.91898,3.6397 -11.55196,0 -17.72355,-6.3299 -6.17159,-6.4881 -6.17159,-18.5148 v -28.326 q 0,-7.2793 -0.79123,-9.02 -0.63299,-1.7407 -3.32317,-2.0572 l -7.12107,-0.4747 v -5.6969 q 12.18494,-1.5825 17.8818,-3.3232 l 11.07722,-3.4814 1.58246,0.9495 v 41.3022 q 0,11.3937 2.69018,16.1411 2.84843,4.5891 9.65301,4.5891 6.32984,0 10.76073,-4.1144 4.43088,-4.2726 4.43088,-10.1277 v -24.6864 q 0,-7.2793 -0.79123,-9.02 -0.63298,-1.7407 -3.32316,-2.0572 l -7.12107,-0.4747 v -5.6969 q 12.50143,-1.5825 17.8818,-3.3232 l 11.07722,-3.4814 1.58246,0.9495 v 57.7598 q 0,6.4881 0.79123,8.2288 0.94947,1.5824 4.90562,1.8989 l 5.22212,0.3165 v 5.8551 q -3.32317,-0.1582 -7.43756,-0.1582 -8.54529,-0.3165 -8.70353,-0.3165 -1.10772,0 -14.87513,0.4747 z m 38.4538,7.2793 5.53861,-0.3165 q 3.95615,-0.3165 4.74738,-1.8989 0.94947,-1.7407 0.94947,-8.2288 v -34.6559 q 0,-7.2793 -0.79123,-9.02 -0.63298,-1.7407 -3.32316,-2.0572 l -7.12107,-0.4747 v -5.6969 q 6.64633,-0.3165 12.02669,-1.5825 5.38037,-1.2659 17.56531,-5.2221 l 0.94948,0.9495 v 11.8684 l 12.65968,-9.8112 q 3.95615,-3.0067 11.23546,-3.0067 8.2288,0 13.13442,3.0067 5.06387,3.0067 7.75406,9.8112 l 12.65968,-9.8112 q 3.95615,-3.0067 11.23546,-3.0067 12.81793,0 17.72355,6.4881 5.06388,6.3298 5.06388,22.7874 v 29.4338 q 0,6.4881 0.79123,8.2288 0.94947,1.5824 4.90562,1.8989 l 5.22212,0.3165 v 5.8551 q -5.69686,-0.3165 -15.50811,-0.4747 l -14.71688,0.4747 V 2213.82 q 0,-18.3565 -13.60915,-18.3565 -4.74738,0 -8.86178,3.4814 -3.95615,3.3232 -3.95615,7.2793 v 34.3394 q 0,6.4881 0.79123,8.2288 0.94948,1.5824 4.90563,1.8989 l 5.53861,0.3165 v 5.8551 q -17.24882,-0.4747 -20.73023,-0.4747 -3.32316,0 -20.41373,0.4747 v -5.8551 l 4.90562,-0.3165 q 3.79791,-0.3165 4.74738,-1.8989 0.94948,-1.7407 0.94948,-8.2288 V 2213.82 q 0,-18.3565 -13.60916,-18.3565 -4.74738,0 -8.86177,3.4814 -3.95615,3.3232 -3.95615,7.2793 v 34.3394 q 0,6.4881 0.79123,8.0705 0.94947,1.5825 4.90562,2.0572 l 4.27265,0.3165 v 5.8551 q -14.55864,-0.4747 -20.09725,-0.4747 l -20.41373,0.4747 z"
       id="text2"
       style="font-weight:bold;font-size:158.246px;line-height:0.9;font-family:'Journal Antiqua';-inkscape-font-specification:'Journal Antiqua Bold';letter-spacing:0px;text-orientation:upright;fill:url(#linearGradient4);stroke-width:4"
       aria-label="Caesium" />
  </g>
</svg>
